<mxfile host="65bd71144e">
    <diagram id="51ouflv0m8EwS0c2B2zZ" name="Page-1">
        <mxGraphModel dx="399" dy="269" grid="0" gridSize="10" guides="1" tooltips="1" connect="1" arrows="1" fold="1" page="1" pageScale="1" pageWidth="850" pageHeight="1100" math="0" shadow="0">
            <root>
                <mxCell id="0"/>
                <mxCell id="1" parent="0"/>
                <mxCell id="15" value="" style="group" vertex="1" connectable="0" parent="1">
                    <mxGeometry x="229" y="106" width="105" height="58" as="geometry"/>
                </mxCell>
                <mxCell id="9" value="SLAVE" style="rounded=0;whiteSpace=wrap;html=1;align=right;" vertex="1" parent="15">
                    <mxGeometry y="-2" width="105" height="53" as="geometry"/>
                </mxCell>
                <mxCell id="10" value="CLK" style="text;html=1;align=left;verticalAlign=middle;whiteSpace=wrap;rounded=0;" vertex="1" parent="15">
                    <mxGeometry y="5.19318181818182" width="60" height="8.568181818181818" as="geometry"/>
                </mxCell>
                <mxCell id="11" value="MOSI" style="text;html=1;align=left;verticalAlign=middle;whiteSpace=wrap;rounded=0;" vertex="1" parent="15">
                    <mxGeometry y="15.761363636363637" width="60" height="8.568181818181818" as="geometry"/>
                </mxCell>
                <mxCell id="12" value="MISO" style="text;html=1;align=left;verticalAlign=middle;whiteSpace=wrap;rounded=0;" vertex="1" parent="15">
                    <mxGeometry y="26.329545454545453" width="60" height="8.568181818181818" as="geometry"/>
                </mxCell>
                <mxCell id="13" value="CS" style="text;html=1;align=left;verticalAlign=middle;whiteSpace=wrap;rounded=0;" vertex="1" parent="15">
                    <mxGeometry y="36.23863636363636" width="60" height="8.568181818181818" as="geometry"/>
                </mxCell>
                <mxCell id="17" value="" style="group" vertex="1" connectable="0" parent="1">
                    <mxGeometry x="30" y="100" width="105" height="71" as="geometry"/>
                </mxCell>
                <mxCell id="3" value="MASTER" style="rounded=0;whiteSpace=wrap;html=1;align=left;" vertex="1" parent="17">
                    <mxGeometry x="1" y="8" width="104" height="55" as="geometry"/>
                </mxCell>
                <mxCell id="4" value="CLK" style="text;html=1;align=right;verticalAlign=middle;whiteSpace=wrap;rounded=0;" vertex="1" parent="17">
                    <mxGeometry x="45" y="10.488636363636363" width="60" height="10.488636363636363" as="geometry"/>
                </mxCell>
                <mxCell id="5" value="MOSI" style="text;html=1;align=right;verticalAlign=middle;whiteSpace=wrap;rounded=0;" vertex="1" parent="17">
                    <mxGeometry x="45" y="20.977272727272727" width="60" height="10.488636363636363" as="geometry"/>
                </mxCell>
                <mxCell id="6" value="MISO" style="text;html=1;align=right;verticalAlign=middle;whiteSpace=wrap;rounded=0;" vertex="1" parent="17">
                    <mxGeometry x="45" y="31.46590909090909" width="60" height="10.488636363636363" as="geometry"/>
                </mxCell>
                <mxCell id="7" value="CS-0" style="text;html=1;align=right;verticalAlign=middle;whiteSpace=wrap;rounded=0;" vertex="1" parent="17">
                    <mxGeometry x="45" y="41.14772727272727" width="60" height="10.488636363636363" as="geometry"/>
                </mxCell>
                <mxCell id="8" value="CS-1" style="text;html=1;align=right;verticalAlign=middle;whiteSpace=wrap;rounded=0;" vertex="1" parent="17">
                    <mxGeometry x="45" y="50.022727272727266" width="60" height="10.488636363636363" as="geometry"/>
                </mxCell>
                <mxCell id="26" value="" style="endArrow=classic;html=1;" edge="1" parent="1">
                    <mxGeometry width="50" height="50" relative="1" as="geometry">
                        <mxPoint x="135" y="116" as="sourcePoint"/>
                        <mxPoint x="229" y="116" as="targetPoint"/>
                    </mxGeometry>
                </mxCell>
                <mxCell id="27" value="" style="endArrow=classic;html=1;" edge="1" parent="1">
                    <mxGeometry width="50" height="50" relative="1" as="geometry">
                        <mxPoint x="135" y="126" as="sourcePoint"/>
                        <mxPoint x="229" y="126" as="targetPoint"/>
                    </mxGeometry>
                </mxCell>
                <mxCell id="28" value="" style="endArrow=classic;html=1;" edge="1" parent="1">
                    <mxGeometry width="50" height="50" relative="1" as="geometry">
                        <mxPoint x="229" y="137" as="sourcePoint"/>
                        <mxPoint x="135" y="137" as="targetPoint"/>
                    </mxGeometry>
                </mxCell>
                <mxCell id="29" value="" style="endArrow=classic;html=1;" edge="1" parent="1">
                    <mxGeometry width="50" height="50" relative="1" as="geometry">
                        <mxPoint x="135" y="147" as="sourcePoint"/>
                        <mxPoint x="229" y="147" as="targetPoint"/>
                    </mxGeometry>
                </mxCell>
                <mxCell id="30" value="" style="group" vertex="1" connectable="0" parent="1">
                    <mxGeometry x="229" y="206" width="105" height="58" as="geometry"/>
                </mxCell>
                <mxCell id="31" value="SLAVE" style="rounded=0;whiteSpace=wrap;html=1;align=right;" vertex="1" parent="30">
                    <mxGeometry y="-2" width="105" height="55" as="geometry"/>
                </mxCell>
                <mxCell id="32" value="CLK" style="text;html=1;align=left;verticalAlign=middle;whiteSpace=wrap;rounded=0;" vertex="1" parent="30">
                    <mxGeometry y="5.19318181818182" width="60" height="8.568181818181818" as="geometry"/>
                </mxCell>
                <mxCell id="33" value="MOSI" style="text;html=1;align=left;verticalAlign=middle;whiteSpace=wrap;rounded=0;" vertex="1" parent="30">
                    <mxGeometry y="15.761363636363637" width="60" height="8.568181818181818" as="geometry"/>
                </mxCell>
                <mxCell id="34" value="MISO" style="text;html=1;align=left;verticalAlign=middle;whiteSpace=wrap;rounded=0;" vertex="1" parent="30">
                    <mxGeometry y="26.329545454545453" width="60" height="8.568181818181818" as="geometry"/>
                </mxCell>
                <mxCell id="35" value="CS" style="text;html=1;align=left;verticalAlign=middle;whiteSpace=wrap;rounded=0;" vertex="1" parent="30">
                    <mxGeometry y="37.23863636363636" width="60" height="8.568181818181818" as="geometry"/>
                </mxCell>
                <mxCell id="37" value="" style="endArrow=classic;html=1;" edge="1" parent="1">
                    <mxGeometry width="50" height="50" relative="1" as="geometry">
                        <mxPoint x="196" y="116" as="sourcePoint"/>
                        <mxPoint x="229" y="216" as="targetPoint"/>
                        <Array as="points">
                            <mxPoint x="196" y="216"/>
                        </Array>
                    </mxGeometry>
                </mxCell>
                <mxCell id="38" value="" style="endArrow=classic;html=1;" edge="1" parent="1">
                    <mxGeometry width="50" height="50" relative="1" as="geometry">
                        <mxPoint x="179" y="126" as="sourcePoint"/>
                        <mxPoint x="229" y="226" as="targetPoint"/>
                        <Array as="points">
                            <mxPoint x="180" y="226"/>
                        </Array>
                    </mxGeometry>
                </mxCell>
                <mxCell id="39" value="" style="endArrow=classic;html=1;" edge="1" parent="1">
                    <mxGeometry width="50" height="50" relative="1" as="geometry">
                        <mxPoint x="229" y="237" as="sourcePoint"/>
                        <mxPoint x="165" y="137" as="targetPoint"/>
                        <Array as="points">
                            <mxPoint x="166" y="237"/>
                        </Array>
                    </mxGeometry>
                </mxCell>
                <mxCell id="40" value="" style="endArrow=classic;html=1;exitX=1;exitY=0.5;exitDx=0;exitDy=0;" edge="1" parent="1" source="8">
                    <mxGeometry width="50" height="50" relative="1" as="geometry">
                        <mxPoint x="135" y="248" as="sourcePoint"/>
                        <mxPoint x="229" y="248" as="targetPoint"/>
                        <Array as="points">
                            <mxPoint x="152" y="155"/>
                            <mxPoint x="152" y="248"/>
                        </Array>
                    </mxGeometry>
                </mxCell>
            </root>
        </mxGraphModel>
    </diagram>
</mxfile>